<?xml version="1.0" encoding="utf-8"?>
<!-- Generator: Adobe Illustrator 19.2.1, SVG Export Plug-In . SVG Version: 6.00 Build 0)  -->
<svg version="1.1" id="Layer_1" xmlns="http://www.w3.org/2000/svg" xmlns:xlink="http://www.w3.org/1999/xlink" x="0px" y="0px"
	 viewBox="0 0 1728 1152" style="enable-background:new 0 0 1728 1152;" xml:space="preserve">
<style type="text/css">
	.st0{fill:#FFFFFF;stroke:#231F20;stroke-linecap:round;stroke-linejoin:round;stroke-miterlimit:10;}
</style>
<g id="Blue_0.001_x22__Line:_Vector_Scoring_Layer">
</g>
<g id="Red_0.001_x22__Line:_Vector_Cutting_Layer">
</g>
<path class="st0" d="M832.1,963.4"/>
<path class="st0" d="M1000.7,955.6l1.7-1.1l-43.6-70l-1.7,1.1l-1.7,1.1l-1.1,0.6l-0.8-1.7l-1.1-1.7h-0.3l-1.7,0.8l-1.7,1.1l-1.7,1.1
	l-1.4,0.8l-1.4-2.2l-6.1,3.9l-37.2,23l-15.5,10l0.6,0.8l-1.7,0.8l-1.7,1.1l-1.4,1.1l-0.8-1.1L856,940.9l-16.4,10l1.4,2.2l-1.7,1.1
	L838,955l-1.7,1.1l-1.7,0.8v0.3h-0.3l0.3,0.3l0.8,1.7l1.1,1.7l-0.8,0.6l-1.9,1.1l-1.7,0.8l43.9,70.2l1.7-1.1l1.7-1.1l0.8-0.6
	l1.1,1.7l1.1,1.4v0.3h0.3l1.7-1.1l1.7-0.8l1.4-1.1l1.7-1.1l1.4,2.2l6.4-3.9l34.4-21.7l-0.6-0.8l1.7-1.1l1.7-0.8l1.7-1.1l1.4-0.8
	l0.3-0.3l1.7-0.8l0.6,0.8l55.5-34.7l-1.4-2.2l1.4-0.8l1.7-1.1l1.7-0.8l1.7-1.1v-0.3l-1.1-1.7l-0.8-1.7l0.8-0.6L1000.7,955.6z"/>
</svg>
