<?xml version="1.0" encoding="utf-8"?>
<!-- Generator: Adobe Illustrator 19.2.1, SVG Export Plug-In . SVG Version: 6.00 Build 0)  -->
<svg version="1.1" id="Layer_1" xmlns="http://www.w3.org/2000/svg" xmlns:xlink="http://www.w3.org/1999/xlink" x="0px" y="0px"
	 viewBox="0 0 1728 1152" style="enable-background:new 0 0 1728 1152;" xml:space="preserve">
<style type="text/css">
	.st0{fill:#FFFFFF;stroke:#231F20;stroke-linecap:round;stroke-linejoin:round;stroke-miterlimit:10;}
</style>
<g id="Blue_0.001_x22__Line:_Vector_Scoring_Layer">
</g>
<g id="Red_0.001_x22__Line:_Vector_Cutting_Layer">
</g>
<polygon class="st0" points="279.9,885.9 270.8,895.6 268.3,893.4 265.8,896.2 265.8,897 265.8,898.1 265.8,899.2 266.1,900.3 
	266.3,906.7 269.1,906.4 269.7,906.4 270,919.8 269.7,919.8 266.6,919.8 266.9,923.9 263.8,924.2 264.1,927 269.1,927 269.4,934.5 
	269.4,934.8 265.2,934.8 265.5,938.1 252.2,938.4 252.2,935.3 248,935.3 247.7,928.1 246.9,928.1 246.6,923.9 250,923.9 
	249.7,920.3 246.4,920.6 246.4,916.2 246.1,907.3 249.4,907 249.1,903.4 247.2,901.4 243.6,901.7 243.6,904.8 239.1,905.1 
	234.7,905.3 230.3,905.3 230.3,905.1 230.3,902 222.8,902.3 222.8,905.6 218.3,905.6 213.9,905.9 209.4,905.9 209.4,908.4 
	209.4,909.8 209.7,910.3 202.2,910.6 202.2,910.1 202.2,908.7 201.9,908.7 201.9,906.2 188.6,906.7 188.6,903.4 187.5,903.4 
	186.1,903.4 181.1,903.7 181.1,906.4 181.1,907 167.8,907.3 167.8,907 167.8,903.9 163.9,904.2 162.2,906.2 162.2,909.8 
	165.6,909.8 165.8,923.1 162.5,923.1 162.8,926.7 165.8,926.7 166.1,930.9 165.3,930.9 165.3,937.8 165.6,938.1 161.4,938.1 
	161.4,941.4 148.1,941.7 148.1,938.7 143.9,938.7 143.6,930.9 148.9,930.6 148.9,927.8 145.9,927.8 145.9,923.7 142.5,923.9 
	142,910.6 145.3,910.3 145,902.8 142.2,903.1 141.7,903.1 141.4,889.8 141.7,889.8 144.7,889.5 144.5,882.3 141.1,882.3 140.6,869 
	143.9,869 143.9,864.8 145.9,864.5 145.6,860.9 153.3,860.6 153.6,864.5 160.8,864.2 160.8,868.4 163.6,868.1 164.2,868.1 
	164.5,874 164.7,881.5 164.5,881.5 161.4,881.7 161.4,885.3 163.6,887.3 163.3,887.3 167.2,887 167,884.2 167,883.7 180.6,883.4 
	180.6,884 180.3,884 180.6,886.7 188.1,886.5 187.8,883.7 187.8,883.1 197.2,882.8 196.9,875.9 212.5,875.6 212.8,882.3 222.2,882 
	222.2,882.6 221.9,882.6 222.2,885.3 229.7,885.1 229.4,882.3 229.4,881.7 242.7,881.5 243,881.7 242.7,881.7 243,884.8 
	253.3,884.5 253.3,884.2 253.6,884.2 256.1,881.7 253.6,879.5 262.7,869.8 265.2,872 267.7,869.2 269.1,867.9 268.8,862 265.8,862 
	265.2,848.7 268.6,848.7 268.3,844.5 275.5,844.3 275.5,840.7 283.3,840.4 283.3,844 285.2,844 285.5,848.1 288.8,848.1 
	289.1,861.5 285.8,861.5 286.1,869 289.4,869 289.7,875.4 284.9,880.4 282.7,878.1 280.2,880.6 281.6,882 278.8,884.8 279.9,885.9 
	"/>
</svg>
