<?xml version="1.0" encoding="utf-8"?>
<!-- Generator: Adobe Illustrator 19.2.1, SVG Export Plug-In . SVG Version: 6.00 Build 0)  -->
<svg version="1.1" id="Layer_1" xmlns="http://www.w3.org/2000/svg" xmlns:xlink="http://www.w3.org/1999/xlink" x="0px" y="0px"
	 viewBox="0 0 1728 1152" style="enable-background:new 0 0 1728 1152;" xml:space="preserve">
<style type="text/css">
	.st0{fill:#FFFFFF;stroke:#231F20;stroke-linecap:round;stroke-linejoin:round;stroke-miterlimit:10;}
</style>
<g id="Blue_0.001_x22__Line:_Vector_Scoring_Layer">
</g>
<g id="Red_0.001_x22__Line:_Vector_Cutting_Layer">
</g>
<polygon class="st0" points="825.8,706 843.5,695.2 888.8,767.6 871.6,779.6 "/>
<polyline class="st0" points="876.8,775.9 911.3,832.3 932.9,819 901,767.4 892.1,772.6 888.8,767.6 "/>
<polyline class="st0" points="984.9,771.4 984.9,771.4 979.3,774.9 980.4,776.8 935.7,804.6 933.5,801.2 930.4,803.2 928.5,800.7 
	923.9,803.5 932.9,819 934.9,822.3 940.1,819 942.9,822.9 995.8,788.7 "/>
<polygon class="st0" points="972.3,751.5 997.6,791.5 1038.1,766 1036.5,763.5 1041.5,760.1 1028.1,740.4 1023.4,743.2 
	1012.9,726.3 "/>
<polygon class="st0" points="940.1,730.2 900.2,666.3 895.4,668.8 893.2,669.9 881.6,677.4 881.8,678 882.4,677.7 882.4,678 
	882.7,678 882.7,678.2 882.4,678.2 882.7,678.5 882.7,678.2 882.9,678.5 882.7,678.5 882.9,678.8 882.9,678.5 883.2,678.8 
	882.9,679.1 883.2,679.1 883.2,679.4 883.5,679.4 883.5,679.6 883.5,679.9 883.8,679.6 883.8,679.9 883.5,679.9 883.8,680.2 
	884.1,680.2 883.8,680.5 884.1,680.5 884.3,680.5 884.1,680.7 884.3,680.7 884.3,681 884.3,681.3 884.6,681 884.6,681.3 
	884.6,681.6 884.9,681.6 884.6,681.9 884.9,681.9 885.2,682.1 884.9,682.1 884.9,682.4 885.2,682.1 885.4,682.4 885.2,682.4 
	885.2,682.7 885.4,682.4 885.4,682.7 885.4,683 885.7,683 885.7,683.2 886,683.2 886,683.5 885.7,683.5 886,683.8 886,683.5 
	886.3,683.8 886,683.8 886,684.1 886.3,684.1 886.3,684.4 886.6,684.4 886.6,684.6 886.8,684.6 886.8,684.9 886.6,684.9 
	886.8,685.2 886.8,684.9 887.1,685.2 886.8,685.2 887.1,685.5 887.4,685.5 887.1,685.7 887.4,685.7 887.4,686 887.4,686.3 
	887.7,686 887.7,686.3 887.7,686.6 887.9,686.3 887.9,686.6 887.7,686.9 887.9,686.9 888.2,686.9 887.9,687.1 888.2,687.1 
	888.5,687.4 888.2,687.4 888.2,687.7 888.5,687.4 888.5,687.7 888.5,688 888.8,688 888.2,688.2 887.4,688.8 886.6,689.4 
	885.7,689.9 884.3,691 883.2,691.8 882.4,692.7 882.7,693.2 882.9,693 883.8,693.8 883.2,694.3 882.1,695.5 881.8,696 881.3,696.6 
	881,697.1 880.4,697.7 879.1,699.9 879.3,700.2 879.6,699.9 880.7,700.5 880.2,701.3 879.6,702.7 879.1,704.1 878.5,704.9 
	878.5,705.2 878.5,705.5 878.2,706.3 877.7,707.7 878.2,708 878.2,707.4 879.3,707.7 879.6,709.3 879.6,709.9 879.9,710.7 
	879.9,711 880.2,711.8 879.9,711.8 876.6,714.1 876.6,713.8 876.3,713.8 875.7,714.3 874.9,714.6 874.9,714.9 874.9,715.2 
	871.6,717.1 871.6,716.8 871.3,717.1 871.3,716.8 870.7,717.4 869.9,717.9 869.6,717.9 869.9,718.2 866.6,720.2 866.3,720.2 
	865.5,720.7 864.9,721 861.3,723.6 871.8,740.2 873.5,739 873.5,738.8 874.6,737.9 874.9,738.2 887.4,730.4 887.4,730.2 
	888.5,729.3 888.8,729.6 890.7,728.5 891,728.8 891.3,729 891.8,729.3 893.5,730.4 893.5,731.5 892.9,731.5 892.9,732.1 
	895.2,732.4 896.3,732.7 896.8,732.7 897.7,732.7 898.8,732.7 900.7,732.7 900.7,733.8 900.4,733.8 900.4,734.3 902.9,734 
	903.5,734 904,733.8 904.3,733.8 904.6,733.8 905.7,733.5 907.9,732.9 908.2,732.7 908.5,733.8 908.2,734 908.5,734.6 909.9,734 
	910.7,733.5 911,733.5 911.3,733.2 911.5,733.2 912.6,732.7 912.9,732.4 913.2,732.1 913.8,732.1 914.3,731.5 915.4,730.7 
	915.7,731 915.4,731 915.4,731.3 915.7,731.3 915.7,731.5 916,731.5 916,731.8 916.3,731.8 916.3,732.1 916,732.1 916.3,732.4 
	916.3,732.1 916.5,732.4 916.3,732.4 916.5,732.7 916.8,732.7 916.5,732.9 916.8,732.9 916.8,733.2 917.1,733.2 917.1,733.5 
	917.1,733.8 917.4,733.5 917.4,733.8 917.1,733.8 917.4,734 917.6,734 917.4,734.3 917.6,734.3 917.9,734.6 917.6,734.6 
	917.9,734.6 917.9,734.9 917.9,735.2 918.2,734.9 918.2,735.2 918.2,735.4 918.5,735.4 918.2,735.7 918.5,735.7 918.8,736 
	918.5,736 918.8,736.3 918.8,736 919,736.3 918.8,736.3 918.8,736.5 919,736.5 919,736.8 919.3,736.8 919.3,737.1 919.6,737.1 
	919.6,737.4 919.3,737.4 919.6,737.7 919.6,737.4 919.9,737.7 919.6,737.7 919.9,737.9 920.1,737.9 919.9,738.2 920.1,738.2 
	920.1,738.5 920.4,738.5 920.4,738.8 920.4,739 920.7,738.8 920.7,739 920.4,739.3 920.7,739.3 921,739.3 920.7,739.6 921,739.6 
	921.3,739.9 921,739.9 921,740.2 921.3,739.9 921.3,740.2 921.3,740.4 921.5,740.4 921.5,740.7 921.8,740.7 921.5,741 921.8,741 
	922.1,741.3 921.5,741.5 921.8,742.1 932.4,735.4 "/>
</svg>
