<?xml version="1.0" encoding="utf-8"?>
<!-- Generator: Adobe Illustrator 19.2.1, SVG Export Plug-In . SVG Version: 6.00 Build 0)  -->
<svg version="1.1" id="Layer_1" xmlns="http://www.w3.org/2000/svg" xmlns:xlink="http://www.w3.org/1999/xlink" x="0px" y="0px"
	 viewBox="0 0 1728 1152" style="enable-background:new 0 0 1728 1152;" xml:space="preserve">
<style type="text/css">
	
		.st0{fill-rule:evenodd;clip-rule:evenodd;fill:#FFFFFF;stroke:#231F20;stroke-linecap:round;stroke-linejoin:round;stroke-miterlimit:10;}
	.st1{fill:#FFFFFF;stroke:#231F20;stroke-linecap:round;stroke-linejoin:round;stroke-miterlimit:10;}
</style>
<g id="Blue_0.001_x22__Line:_Vector_Scoring_Layer">
</g>
<g id="Red_0.001_x22__Line:_Vector_Cutting_Layer">
</g>
<polygon class="st0" points="623.3,343.5 698.4,340.5 699.5,370.9 624.5,373.8 "/>
<polygon class="st1" points="681.7,341.2 656,342.2 655.6,335.7 650,335.9 647.5,282.6 649.7,280.4 640.6,267.4 650,258.8 
	639.7,243.8 649.2,235.2 638.9,220.2 648.4,211.6 643.9,204.7 643.9,204.7 630.6,205.7 628.9,173.3 671.4,171.6 670.8,157.2 
	699.2,156 696.7,98.3 737.5,96.4 736.9,83.9 767.5,82.8 769.1,122.2 749.4,123 750.2,144.6 778.8,143.6 780.2,176 778.3,176.1 
	779.7,211.6 783.3,212.1 786.1,275.1 774.1,275.4 773.8,266.5 757.5,266 752.6,262.6 752.6,262.6 753,277.9 742.5,278.2 
	741.4,255.4 680,257.7 680.5,271.8 680.5,271.8 690.3,273.2 691.9,284.6 684.2,287.6 685.6,334.6 681.4,334.6 "/>
</svg>
