<?xml version="1.0" encoding="utf-8"?>
<!-- Generator: Adobe Illustrator 19.2.1, SVG Export Plug-In . SVG Version: 6.00 Build 0)  -->
<svg version="1.1" id="Layer_1" xmlns="http://www.w3.org/2000/svg" xmlns:xlink="http://www.w3.org/1999/xlink" x="0px" y="0px"
	 viewBox="0 0 1728 1152" style="enable-background:new 0 0 1728 1152;" xml:space="preserve">
<style type="text/css">
	.st0{fill:#FFFFFF;stroke:#231F20;stroke-linecap:round;stroke-linejoin:round;stroke-miterlimit:10;}
</style>
<g id="Blue_0.001_x22__Line:_Vector_Scoring_Layer">
</g>
<g id="Red_0.001_x22__Line:_Vector_Cutting_Layer">
</g>
<polygon class="st0" points="296.3,933.4 305.8,933.4 305.8,935.3 311.3,935.3 311.3,929.8 350.5,930.3 350.5,932.3 354.3,932 
	355.7,931.2 353.8,927.8 395.4,904.5 396.3,905.9 400.7,903.4 407.3,914.2 409.3,912.7 430.7,950.9 416.5,959.2 410.7,949.4 
	407.1,951.4 405.2,948.1 403.8,949.2 398.5,940.3 399.9,939.5 394,929.8 387.4,933.9 388.2,935.3 379.3,940.6 378.5,939.2 
	370.2,944.2 371,945.6 366.3,948.4 364.6,945.9 359.9,948.9 357.1,948.9 357.1,952.5 352.1,952.5 352.1,950.9 342.4,951.1 
	342.4,952.8 325.2,953.1 325.2,951.4 317.4,951.7 317.7,955 319.1,955 319.6,972.2 318,972.2 318.3,985.8 300.2,985.6 299.9,977 
	297.2,977 297.2,972.5 295.5,972.5 295.2,955.6 296.9,955.6 296.6,947.5 294.9,947.5 294.9,942 296.6,942 "/>
</svg>
