<?xml version="1.0" encoding="utf-8"?>
<!-- Generator: Adobe Illustrator 19.2.1, SVG Export Plug-In . SVG Version: 6.00 Build 0)  -->
<svg version="1.1" id="Layer_1" xmlns="http://www.w3.org/2000/svg" xmlns:xlink="http://www.w3.org/1999/xlink" x="0px" y="0px"
	 viewBox="0 0 1728 1152" style="enable-background:new 0 0 1728 1152;" xml:space="preserve">
<style type="text/css">
	.st0{fill:#FFFFFF;stroke:#231F20;stroke-linecap:round;stroke-linejoin:round;stroke-miterlimit:10;}
</style>
<g id="Blue_0.001_x22__Line:_Vector_Scoring_Layer">
</g>
<g id="Red_0.001_x22__Line:_Vector_Cutting_Layer">
</g>
<polygon class="st0" points="959,248.8 958.7,238.8 956.2,238.8 953.3,238.9 919,235.4 915.7,234.6 892.4,229.9 891.3,202.4 
	891.3,201.9 891,201.9 890.7,201.9 878.2,201.9 878,194.4 877.7,187.5 870.6,187.7 870.7,190.9 847.1,191.5 847.1,203.5 841,203.8 
	840.7,203.8 835.5,204.1 834.8,182.7 814.4,183.5 794.2,184.7 795.2,205.7 779.5,206.3 779.5,206.3 779.7,211.6 779.7,211.6 
	783.3,212.1 791.3,214.1 791,215.7 812.4,220.2 814.9,220.7 816.9,221 819.4,221.6 841.3,225.9 843.5,265.7 843.8,266.3 
	854.1,265.6 854.1,277.8 875.4,276.8 875.4,265.7 911.5,264.2 912.4,269.9 935.5,268.8 935.1,261.5 942.9,248.2 "/>
</svg>
