<?xml version="1.0" encoding="utf-8"?>
<!-- Generator: Adobe Illustrator 19.2.1, SVG Export Plug-In . SVG Version: 6.00 Build 0)  -->
<svg version="1.1" id="Layer_1" xmlns="http://www.w3.org/2000/svg" xmlns:xlink="http://www.w3.org/1999/xlink" x="0px" y="0px"
	 viewBox="0 0 1728 1152" style="enable-background:new 0 0 1728 1152;" xml:space="preserve">
<style type="text/css">
	.st0{fill:#FFFFFF;stroke:#231F20;stroke-linecap:round;stroke-linejoin:round;stroke-miterlimit:10;}
</style>
<g id="Blue_0.001_x22__Line:_Vector_Scoring_Layer">
</g>
<g id="Red_0.001_x22__Line:_Vector_Cutting_Layer">
</g>
<polygon class="st0" points="502.6,940.9 509.5,947.3 509,947.5 508.7,947.5 506.2,950.3 508.4,952.3 510.9,954.5 511.5,955 
	511.2,955.6 510.9,955.3 507.6,958.9 507.6,959.2 507.3,959.5 507.3,959.2 503.7,962.8 504,963.1 503.7,963.4 503.4,963.1 
	500.1,966.7 500.4,967 500.1,967.2 499.8,967 496.5,970.6 496.8,970.9 496.5,971.1 496.2,971.1 492.9,974.7 493.2,974.7 492.6,975 
	489.3,978.6 489,979.2 488.7,979.2 488.7,979.7 488.4,979.7 487.6,983.1 487.9,983.1 487.9,983.3 489,983.6 489,983.9 488.7,983.6 
	487.9,987.2 488.2,987.2 488.2,987.5 486.8,987.2 485.9,990.6 486.2,990.8 485.9,991.4 486.2,991.4 486.2,992 485.9,992 
	487.6,996.7 487.9,997.2 487.6,997.2 489,1001.9 489.3,1001.9 489.6,1002.2 489.3,1002.2 490.7,1006.9 490.9,1006.9 490.9,1007.5 
	490.7,1007.5 492.3,1012.2 492.6,1012.5 492.3,1012.5 493.7,1017.2 494,1017.2 494.3,1017.8 494,1017.8 495.4,1022.5 495.7,1022.2 
	495.9,1023 495.1,1023.3 495.1,1023 494,1023.6 495.1,1027.2 495.4,1027.2 495.4,1027.8 486.8,1030.3 486.5,1029.7 486.8,1029.7 
	485.7,1026.1 479.6,1027.8 479.6,1028 478.7,1028.3 478.4,1027.5 479,1027.5 477.3,1022.8 477.1,1022.5 477.3,1022.2 475.9,1017.5 
	475.7,1017.8 475.4,1017.2 475.7,1017.2 474.3,1012.5 474,1012.5 474,1012.2 474.3,1011.9 472.6,1007.2 472.6,1007.5 472.3,1006.9 
	472.6,1006.9 471.2,1002.2 470.9,1002.2 470.7,1001.9 470.9,1001.7 469.6,997.2 469.3,997.2 469.3,996.4 468.7,996.1 469,995.8 
	466.5,993.3 466.2,993.6 466,993.3 466.2,993.1 463.7,990.8 463.5,991.1 463.2,990.6 460.7,988.1 460.7,988.3 460.1,988.1 
	459.3,987.8 459.6,987.5 454.6,986.4 454.6,986.7 454.3,986.7 454.3,986.4 449.3,985.3 449.3,985.6 449,985.6 449,985.3 
	444.3,984.2 444,984.5 443.7,984.2 443.7,983.9 439,982.8 439,983.1 438.5,983.1 438.5,982.8 433.7,981.7 433.7,982 433.2,982 
	433.2,981.7 428.5,980.6 428.5,980.8 427.6,980.6 427.9,979.7 428.2,978.9 424.3,978.1 424,978.1 426,968.9 426.5,969.2 
	426.5,969.5 430.4,970.3 431.8,964.2 431.5,963.9 431.8,963.4 432.4,963.4 432.4,963.6 437.1,964.7 437.4,964.5 437.6,964.7 
	437.6,965 442.4,966.1 442.4,965.9 442.9,965.9 442.9,966.1 447.6,967.2 447.6,967 448.2,967 448.2,967.2 452.9,968.4 452.9,968.1 
	453.5,968.4 453.2,968.6 458.2,969.7 458.2,969.5 458.5,969.5 458.5,969.7 463.5,970.9 463.5,970.6 464,970.9 464.6,970.9 
	464.8,970.9 468.2,970 467.9,969.7 468.5,969.5 468.5,969.7 471.8,968.9 471.8,968.6 472.1,968.4 472.1,968.6 475.4,967.8 
	475.4,967.5 475.9,967.2 476.5,966.7 479.8,963.1 480.1,962.8 480.4,962.8 483.7,959.2 483.4,959.2 483.7,958.9 484,958.9 
	487.3,955.3 487.1,955.3 487.3,954.8 487.6,955 490.9,951.4 490.7,951.1 490.9,950.9 491.2,951.1 494.5,947.5 494.5,947.3 
	494.8,947 494.8,947.3 498.2,943.6 498.2,943.4 498.4,942.8 499,943.4 499.8,944.2 502.6,941.4 502.3,941.1 "/>
</svg>
