<?xml version="1.0" encoding="utf-8"?>
<!-- Generator: Adobe Illustrator 19.2.1, SVG Export Plug-In . SVG Version: 6.00 Build 0)  -->
<svg version="1.1" id="Layer_1" xmlns="http://www.w3.org/2000/svg" xmlns:xlink="http://www.w3.org/1999/xlink" x="0px" y="0px"
	 viewBox="0 0 1728 1152" style="enable-background:new 0 0 1728 1152;" xml:space="preserve">
<style type="text/css">
	.st0{fill:#FFFFFF;stroke:#231F20;stroke-linecap:round;stroke-linejoin:round;stroke-miterlimit:10;}
</style>
<g id="Blue_0.001_x22__Line:_Vector_Scoring_Layer">
</g>
<g id="Red_0.001_x22__Line:_Vector_Cutting_Layer">
</g>
<path class="st0" d="M778,480.3l20-12.5l-1.7-2.5l30.3-18.6l6.7,10.5l11.7-0.3l-0.6-26.4h5.5l-0.2-5h9.1l-0.2-5h8.7l-0.1-5.3h8.3
	v-3.9l9.7,0l11.9,19.4l15.8-3.1l3.8,5.9l8.8-5.5l3.5,5.5l10-6.3l7.5,11.3l7.6,4l-2.6,4.9l0.8,16.1l9.6,16.7l-14.2,9.5l-5.4-7.6
	l-9.3,6.4l-3.3-4.8l-9.6,6.2l-3.1-5l-10.1,6.4l-3.8-5.8l-26.9,17.7L872,497l-9.9,5.8l3.9,6.4l-5.1,3l14.5,22l-15.8,10L847,524.6
	l-19.3,12.3c0,0-2.1,1.3-1.7,2.8c1.1,4.4-2.7,6.5-6.5,3.9c-1.8-1.2-4.8-6.2-4.8-6.2L778,480.3z"/>
</svg>
