<?xml version="1.0" encoding="utf-8"?>
<!-- Generator: Adobe Illustrator 19.2.1, SVG Export Plug-In . SVG Version: 6.00 Build 0)  -->
<svg version="1.1" id="Layer_1" xmlns="http://www.w3.org/2000/svg" xmlns:xlink="http://www.w3.org/1999/xlink" x="0px" y="0px"
	 viewBox="0 0 1728 1152" style="enable-background:new 0 0 1728 1152;" xml:space="preserve">
<style type="text/css">
	.st0{fill:#FFFFFF;stroke:#231F20;stroke-linecap:round;stroke-linejoin:round;stroke-miterlimit:10;}
</style>
<g id="Blue_0.001_x22__Line:_Vector_Scoring_Layer">
</g>
<g id="Red_0.001_x22__Line:_Vector_Cutting_Layer">
</g>
<g>
	<line class="st0" x1="763" y1="489.7" x2="778" y2="480.3"/>
	<polyline class="st0" points="675.8,535.3 675.3,534.4 672.2,529.4 671.4,528.3 698.3,511.4 695.8,507.5 695.5,507.2 695.5,507 
		695.3,506.7 695.3,506.4 695.3,506.1 695.3,505.8 695.3,505.6 695.3,505.3 695.5,505 695.5,504.7 695.8,504.5 695.8,504.2 
		696.1,503.9 696.4,503.6 696.4,503.3 696.7,503.3 696.9,503.1 697.2,502.8 697.5,502.8 697.8,502.5 698,502.5 698.3,502.5 
		698.6,502.5 698.9,502.5 699.2,502.8 699.4,502.8 699.7,502.8 700.8,503.9 702.2,505.8 706.9,503.1 706.9,502.8 706.7,502.5 
		706.7,502.2 706.7,502 706.4,501.7 706.4,501.4 706.4,501.1 706.4,500.8 706.4,500.6 706.4,500.3 706.4,500 706.4,499.7 
		706.4,499.5 706.7,499.2 706.7,498.9 706.7,498.6 706.9,498.4 706.9,498.1 706.9,497.8 707.2,497.5 707.5,497.2 707.5,497 
		707.8,496.7 708,496.4 708.3,496.1 708.6,495.9 708.9,495.9 709.2,495.6 709.4,495.3 709.7,495.3 710,495 710.3,495 710.5,495 
		710.8,495 711.1,494.7 711.4,494.7 711.6,494.7 711.9,494.7 712.2,494.7 712.5,494.7 712.8,494.7 713,494.7 713.3,495 713.6,495 
		713.9,495 714.1,495 714.4,495.3 714.7,495.3 715,495.6 715.3,495.9 715.5,495.9 715.8,496.1 716.1,496.4 716.4,496.7 716.4,497 
		721.1,494.2 719.7,492 719.4,491.4 719.4,491.1 719.4,490.6 719.7,489.2 720,488.9 720.3,488.6 720.3,488.4 720.5,488.4 
		720.8,488.1 721.1,487.8 721.4,487.8 721.6,487.5 721.9,487.5 722.2,487.5 722.5,487.5 722.8,487.5 723,487.5 723.3,487.5 
		723.6,487.8 723.9,487.8 724.1,488.1 724.4,488.4 724.7,488.4 725,488.6 725.3,488.9 727.8,493.1 753.3,477 754.4,476.4 754.7,477 
		754.7,476.7 755,477.3 755.2,477.5 763,489.7 778,480.3 778,480.3 814.6,537.8 814.4,538 812.1,539.4 811.9,539.7 817.7,548.9 
		816.9,549.2 806.3,555.8 805.2,556.6 805.5,556.9 778.8,573.9 782.4,579.7 782.7,580 782.7,580.2 783,580.5 783,580.8 783,581.1 
		783,581.4 783,581.6 783,581.9 783,582.2 782.7,582.5 782.7,582.7 782.4,583 782.2,583.3 782.2,583.6 781.9,583.6 781.6,583.9 
		781.3,584.1 781.1,584.1 780.8,584.1 780.5,584.4 780.2,584.4 779.9,584.4 779.7,584.4 779.4,584.4 779.1,584.4 778.8,584.4 
		778.6,584.4 778.3,584.7 776.1,581.4 771.6,584.1 771.6,584.4 771.9,584.7 771.9,585 771.9,585.2 772.2,585.5 772.2,585.8 
		772.2,586.1 772.2,586.4 772.2,586.6 772.2,586.9 772.2,587.2 772.2,587.5 772.2,587.7 771.9,588 771.9,588.3 771.9,588.6 
		771.6,588.9 771.6,589.1 771.3,589.4 771.3,589.7 771.1,590 770.8,590.2 770.8,590.5 770.5,590.8 770.2,591.1 769.9,591.1 
		769.7,591.4 769.4,591.6 769.1,591.6 768.8,591.9 768.6,591.9 768.3,592.2 768,592.2 767.7,592.2 767.5,592.5 767.2,592.5 
		766.9,592.5 766.6,592.5 766.3,592.5 766.1,592.5 765.8,592.5 765.5,592.5 765.2,592.5 765,592.2 764.7,592.2 764.4,592.2 
		764.1,591.9 763.8,591.9 763.6,591.6 763.3,591.6 763,591.4 762.7,591.1 762.5,591.1 762.2,590.8 761.9,590.5 761.9,590.2 
		757.5,593 758.6,595 758.8,595.5 758.8,595.8 759.4,596.3 758.8,596.6 758.3,598.3 758,598.6 758,598.8 757.7,598.8 757.5,599.1 
		757.2,599.4 756.9,599.4 756.6,599.7 756.3,599.7 756.1,599.7 755.8,599.7 755.5,599.7 755.2,599.7 755,599.7 754.7,599.4 
		754.4,599.4 754.1,599.1 753.8,598.8 753.6,598.8 753.6,598.6 753.3,598.3 751.9,596.3 750.5,594.1 748.9,591.4 727.8,604.1 
		727.8,604.1 727.8,604.1 721.9,607.7 704.4,579.7 675.3,534.4 	"/>
</g>
</svg>
