<?xml version="1.0" encoding="utf-8"?>
<!-- Generator: Adobe Illustrator 19.2.1, SVG Export Plug-In . SVG Version: 6.00 Build 0)  -->
<svg version="1.1" id="Layer_1" xmlns="http://www.w3.org/2000/svg" xmlns:xlink="http://www.w3.org/1999/xlink" x="0px" y="0px"
	 viewBox="0 0 1728 1152" style="enable-background:new 0 0 1728 1152;" xml:space="preserve">
<style type="text/css">
	.st0{fill:#FFFFFF;stroke:#231F20;stroke-linecap:round;stroke-linejoin:round;stroke-miterlimit:10;}
</style>
<g id="Blue_0.001_x22__Line:_Vector_Scoring_Layer">
</g>
<g id="Red_0.001_x22__Line:_Vector_Cutting_Layer">
</g>
<polygon class="st0" points="338,1080 341.3,1073.8 339.9,1073 343.8,1066.1 346.9,1067.7 349.6,1062.7 353.2,1065 354.1,1063.3 
	363.5,1068.6 362.7,1070 369.6,1073.8 372.4,1068.6 371,1067.7 376.3,1058.3 377.7,1059.1 381.6,1052.2 380.2,1051.4 383.6,1045.6 
	386.3,1047.2 388.2,1043.9 382.7,1035.5 381.3,1036.4 372.7,1022.2 374.1,1020.8 364.3,1005.3 370.5,1001.7 369.1,999.2 
	379.6,992.5 378.8,991.1 393.8,982 394.6,983.3 401.8,978.9 402.7,980.3 407.1,977.5 410.7,983.6 416,980.6 420.7,988.3 414.9,992 
	416.3,994.5 405.4,1001.1 406.3,1002.5 396.3,1008.6 395.2,1013.3 401.8,1023.9 400.4,1024.7 404.6,1031.7 406,1030.8 409,1035.8 
	407.7,1036.6 411.8,1043.3 404,1048.9 400.7,1055 402.9,1056.4 402.1,1057.7 403.5,1058.6 401,1063 399.6,1062.2 395.7,1069.1 
	397.1,1070 391.8,1079.4 390.2,1078.3 386.6,1086.1 381,1083 372.4,1099.1 364.6,1094.7 364.1,1096.3 359.1,1093.6 359.9,1092.2 
	353,1088.3 351.8,1089.7 343,1084.7 343.8,1083.3 "/>
</svg>
