<?xml version="1.0" encoding="utf-8"?>
<!-- Generator: Adobe Illustrator 19.2.1, SVG Export Plug-In . SVG Version: 6.00 Build 0)  -->
<svg version="1.1" id="Layer_1" xmlns="http://www.w3.org/2000/svg" xmlns:xlink="http://www.w3.org/1999/xlink" x="0px" y="0px"
	 viewBox="0 0 1728 1152" style="enable-background:new 0 0 1728 1152;" xml:space="preserve">
<style type="text/css">
	.st0{fill:#FFFFFF;stroke:#231F20;stroke-miterlimit:10;}
	.st1{fill:#FFFFFF;stroke:#231F20;stroke-linecap:round;stroke-linejoin:round;stroke-miterlimit:10;}
</style>
<path class="st0" d="M266.8,692.2"/>
<path class="st0" d="M265.3,692.5"/>
<path class="st0" d="M285,729.7"/>
<path class="st0" d="M298.4,751.4"/>
<path class="st0" d="M292.6,757.2"/>
<path class="st0" d="M299,752.5"/>
<path class="st0" d="M312.5,773.9"/>
<path class="st0" d="M341.4,820.1"/>
<path class="st0" d="M475.8,798.2"/>
<path class="st0" d="M469.1,772.1"/>
<path class="st0" d="M468.2,770.7"/>
<path class="st0" d="M454.4,749.6"/>
<path class="st0" d="M453.8,748.1"/>
<path class="st0" d="M440.4,727.4"/>
<path class="st0" d="M461.4,657.7"/>
<g id="Blue_0.001_x22__Line:_Vector_Scoring_Layer">
</g>
<g id="Red_0.001_x22__Line:_Vector_Cutting_Layer">
</g>
<path class="st1" d="M488.4,666l-4.7-7.7l-7.5,5l-8.9-13.9l-10.3,6.1l-23.6,14.2c-1.1,0.6-2.4,1.2-3.3,2c-0.2,0.2-0.2,0.1-0.2,0.3
	c0,0.2,0.4,0.7,0.5,0.8c1.5,2.5,3.1,5,4.6,7.6c0.7,1.1,1.4,2.3,2.1,3.4c0.3,0.5,1.1,1.4,1.2,2c0.1,0.4-0.1,0.3-0.5,0.6
	c-0.9,0.6-1.8,1.2-2.7,1.8c-2.4,1.6-4.8,3.1-7.2,4.7c-0.4,0.3-1,0.8-1.5,1c-0.6,0.2-1.4,0.1-1.9,0.1c-2.7,0.1-5.3,0.3-8,0.4
	c-0.5,0-0.7,0-1-0.4c-0.5-0.6-0.9-1.3-1.3-1.9c-2.5-3.8-5-7.7-7.5-11.5c0-0.1-0.1-0.1-0.1-0.2c-2.2-3.3-4.4-6.6-6.6-9.9
	c-4.1-6.2-8.2-12.3-12.3-18.5c-3.8-5.7-7.6-11.4-11.4-17c-1.1-1.6-2.2-3.3-3.3-4.9c-0.2-0.3-0.4-0.7-0.7-1c-0.1-0.1-0.2-0.3-0.3-0.4
	c-0.3-0.2-0.5-0.2-0.8-0.3c-0.1,0-0.2,0-0.3,0c-0.1,0-0.2-0.3-0.3-0.3c-0.1,0-0.2,0.2-0.3,0.3c-0.1,0-0.2,0-0.3,0
	c-0.1,0-0.3,0-0.4,0c-0.1,0-0.2,0.2-0.3,0.2c-0.6,0.2-0.7-0.4-1.2-0.7c-0.2-0.1-0.4-0.1-0.6-0.3c-0.2-0.2-0.3-0.4-0.5-0.7
	c-0.2-0.3-0.4-0.3-0.6-0.4c-0.2-0.1-0.4-0.3-0.5-0.5c-0.4-0.4-0.7-0.7-1.1-1.1c-0.4-0.4-0.9-0.4-1.3-0.8c-0.4-0.3-0.7-0.7-1.1-1.1
	c-0.2-0.2-0.3-0.4-0.6-0.5c-0.3-0.1-0.5,0.1-0.7-0.3l0.3,0.3c-0.9-0.6-1.7-1.2-2.5-1.9c-0.6-0.5-1.5-0.9-2.1-1.3
	c-0.1-0.1-0.3-0.4-0.4-0.4c-0.2-0.1-0.4,0-0.6,0c-0.4-0.2-0.6-0.6-1-0.8c-0.3-0.1-0.7-0.2-0.9-0.3c-0.4-0.2-0.7-0.4-1.1-0.5
	c-0.2-0.1-0.4-0.2-0.6-0.3c-0.1-0.1-0.1-0.2-0.2-0.2c-0.1,0-0.2,0-0.3,0c-0.1-0.1-0.2-0.2-0.3-0.3c-0.2-0.1-0.5-0.1-0.7-0.2
	c-0.1-0.1-0.2-0.3-0.4-0.3c-0.2-0.1-0.4,0-0.5,0c-0.2-0.1-0.4-0.2-0.5-0.3c-0.1,0-0.1-0.2-0.2-0.2c-0.1,0-0.3,0-0.4,0
	c-0.2-0.1-0.3-0.2-0.5-0.3c-0.1,0-0.2,0-0.3,0c-0.1,0-0.1-0.2-0.2-0.2c-0.2,0-0.4,0-0.5,0c-0.2,0-0.2-0.2-0.4-0.3
	c-0.2-0.1-0.4-0.1-0.6-0.1c-0.2,0-0.3-0.1-0.5-0.1c-0.3-0.1-0.8-0.2-1.1-0.3c-0.4-0.2-0.9-0.4-1.3-0.5c-0.1,0-0.3,0-0.5,0
	c-0.2-0.1-0.2-0.2-0.4-0.3c-0.2-0.1-0.4-0.1-0.6-0.1c-0.2-0.1-0.3-0.1-0.6-0.1c-0.4,0-0.7,0.1-0.9-0.3c-0.5-0.1-1.1-0.2-1.6-0.3
	c-0.4-0.1-0.8-0.2-1.2-0.3c-0.2,0-0.5,0.1-0.7,0c-0.2-0.1-0.3-0.2-0.4-0.3c-0.4-0.1-1,0.1-1.4,0c-0.4-0.1-0.7-0.2-1.1-0.3
	c-0.4,0-0.7,0-1.1,0c-0.2,0-0.5,0.1-0.7,0c-0.2,0-0.2-0.2-0.4-0.3c-0.3-0.1-0.7,0-1.1,0c-1.5,0-3.1,0-4.6,0c-0.8,0-1.5,0-2.3,0
	c-0.7,0-1.6-0.2-2.3,0c-0.3,0.1-0.2,0.2-0.6,0.2c-0.2,0-0.3,0-0.5,0c-0.3,0-0.8-0.1-1.1,0c-0.2,0.1-0.3,0.2-0.6,0.3
	c-0.2,0-0.4,0-0.6,0c-0.4,0-0.7,0-1.1,0c-0.5,0.2-1,0.4-1.6,0.5c-0.3,0.1-0.7,0-1,0c-0.4,0.1-0.8,0.2-1.2,0.3c-0.4,0-0.6,0.2-1,0.3
	c-0.4,0-0.6,0.1-1,0.3c-0.3,0.1-0.6,0.2-0.9,0.3c-0.5,0-0.6,0.1-1,0.3c-0.3,0.1-0.7,0.2-1,0.3c-1.3,0.4-2.6,0.9-3.8,1.4
	c-0.7,0.3-1.4,0.5-2,0.8c-0.6,0.4-1.3,0.5-1.9,0.8c-0.3,0.1-0.5,0.4-0.8,0.6c-0.3,0.1-0.6,0.3-0.9,0.4c-0.3,0.2-0.6,0.3-0.9,0.5
	c-0.3,0.2-0.7,0.1-0.9,0.5l0.3-0.3c-0.6,0.4-1.3,1.1-1.9,1.4c-0.3,0.1-0.6,0.1-0.9,0.3c-0.1,0.1-0.2,0.3-0.4,0.4
	c-0.1,0.1-0.3,0.1-0.4,0.1c-0.5,0.3-0.9,0.8-1.4,1.1c-0.2,0.1-0.4,0.1-0.6,0.4c-0.2,0.2-0.3,0.4-0.5,0.5c-0.5,0.4-1,0.5-1.4,0.9
	c-0.4,0.4-0.8,0.9-1.2,1.2c-0.4,0.3-1,0.4-1.4,0.8c-0.2,0.1-0.2,0.4-0.3,0.5c-0.2,0.2-0.2,0.1-0.3,0.2c-0.2,0.1-0.4,0.3-0.6,0.5
	c-0.8,0.8-1.5,1.5-2.3,2.3l11.9-9.4c-0.2,0.4-0.8,0.3-1.2,0.6c-0.4,0.3-0.6,0.5-0.9,0.7c-0.4,0.2-0.7,0.5-1,0.7
	c-0.4,0.3-0.6,0.4-1,0.7c-0.5,0.5-1.2,0.7-1.8,1.2c-0.3,0.3-0.6,0.6-0.8,0.8c-0.1,0.1-0.2,0.2-0.3,0.3c-0.2,0.1-0.3,0.1-0.4,0.2
	c-0.3,0.2-0.8,0.4-1,0.7c-0.1,0.1-0.2,0.4-0.3,0.5c-0.2,0.2-0.2,0-0.4,0.2c-0.6,0.4-1,1-1.5,1.5c-1,1-2.1,2-3.1,3.1
	c-0.2,0.2-0.2,0.4-0.4,0.6c-0.1,0.1-0.2,0-0.3,0.1c-0.2,0.3-0.3,0.7-0.6,1c-0.6,0.7-1.1,1.5-1.7,2.2c-0.2,0.4-1.6,2.1-1.9,2.5
	c-0.3,0.3-0.4,0.6-0.6,0.9c-0.3,0.3-0.6,0.7-0.8,1c-0.1,0.2-0.1,0.3-0.2,0.5c-0.1,0.1-0.3,0.2-0.4,0.4c-0.1,0.2,0,0.5-0.1,0.6
	c-0.1,0.1-0.3,0.3-0.4,0.4c-0.3,0.3-0.4,0.5-0.5,0.9c-0.1,0.3-0.3,0.4-0.4,0.6c-0.1,0.1-0.1,0.3-0.1,0.5c-0.1,0.2-0.2,0.3-0.3,0.5
	c-0.1,0.2-0.1,0.3-0.2,0.5c0,0.1-0.2,0.1-0.2,0.2c0,0.1,0,0.2,0,0.3c-0.1,0.2-0.2,0.4-0.3,0.6c-0.2,0.3-0.3,0.6-0.4,1
	c-0.1,0.3-0.4,0.6-0.5,1c-0.1,0.3-0.2,0.7-0.4,1c-0.2,0.3-0.3,0.7-0.4,1c-0.1,0.2-0.1,0.4-0.1,0.6c0,0.1-0.2,0.2-0.3,0.3
	c0,0.1,0,0.2,0,0.3c0,0.1-0.2,0.1-0.2,0.2c-0.1,0.2,0,0.4,0,0.6c0,0.1-0.2,0.2-0.3,0.3c-0.1,0.2-0.1,0.5-0.1,0.6
	c-0.1,0.3-0.3,1.2-0.4,1.5c-0.3,1-0.5,2-0.8,3c-0.2,0.5-0.2,0.8-0.3,1.4c0,0.5-0.3,0.7-0.3,1.3c0,0.5-0.2,0.7-0.3,1.1
	c0,0.4,0.1,0.7,0,1.1c-0.1,0.5-0.2,0.7-0.2,1.3c0,0.2,0,0.4,0,0.6c0,0.2-0.2,0.3-0.3,0.5c-0.1,0.4,0,0.9,0,1.3c0,0.4,0,0.8-0.1,1.2
	c-0.2,0.7-0.1,1.6-0.1,2.4c0,1.6,0,3.3,0,4.9c0,0.4-0.1,0.8,0,1.2c0.1,0.4,0.3,0.8,0.3,1.2c0,0.4,0,0.8,0,1.2c0,0.2,0,0.4,0,0.6
	c0.1,0.2,0.3,0.2,0.2,0.5l-0.3-1.1c0.1,0.7,0.1,1.3,0.2,2c0.1,0.5,0.3,0.7,0.3,1.2c0,0.2,0,0.4,0,0.7c0,0.3,0.2,0.3,0.2,0.6
	c0.1,0.4,0,0.9,0.1,1.3c0.1,0.5,0.2,1,0.4,1.4c0.1,0.4,0.3,0.8,0.4,1.2c0.1,0.2-0.1,0.5,0,0.8c0.1,0.2,0.2,0.3,0.3,0.4
	c0.1,0.2-0.1,0.5,0,0.8c0.1,0.3,0.4,0.2,0.3,0.6V688c-0.4,0.7-0.7,1.5-1.1,2.2c-0.2,0.5-0.5,0.9-0.5,1.4c-0.1,0.7,0.6,0.9,0.9,1.4
	c0.2,0.3,0.3,0.6,0.5,0.9c0.9,1.4,1.7,2.8,2.6,4.2c3.6,6,7.2,11.9,10.8,17.9c4.7,7.8,9.3,15.5,14,23.3c4.1,6.7,8.1,13.5,12.2,20.2
	c1.7,2.9,3.5,5.7,5.2,8.6l12.8,20.5c3.4,5.5,6.9,10.9,10.3,16.4c3,4.8,6,9.6,9,14.3c1.5,2.5,3.1,4.9,4.6,7.4
	c1.4,2.2,2.7,4.5,4.2,6.7c1.6,2.2,3.4,4.2,5.2,6.2c0.7,0.8,1.4,1.9,2.4,2.5c0.4,0.3,0.9,0.4,1.4,0.3c0.3-0.1,0.5-0.4,0.9-0.4
	c0.5,0,0.8,0.4,1.1,0.8c0.4,0.5,0.8,0.9,1.2,1.2c0.4,0.3,0.8,0.5,1.1,0.8c0.4,0.3,0.6,0.7,1,1.1c1.6,1.6,3.5,2.8,5.4,4.1l-1.4-0.8
	c0.6-0.2,1.3,0.7,1.7,1c0.7,0.6,1.4,1.1,2.2,1.5c1.8,0.9,3.6,2,5.5,2.9c2,1,4.1,2,6.2,2.7c0.9,0.3,1.7,0.4,2.5,0.8
	c0.8,0.4,1.7,0.6,2.7,0.6l1.7,0.6c-0.8-0.2-1.7-0.4-2.5-0.6c1.2,0.3,2.4,0.7,3.7,0.8c1.2,0.1,2.4,0.6,3.6,0.6c0.9,0,1.6,0.3,2.5,0.3
	c0.9,0,1.8,0.4,2.7,0.4c1.3,0,2.6-0.1,3.8-0.1c1,0,2.1,0.2,3.1,0c1.2-0.2,2.3-0.3,3.5-0.5c1.2-0.1,2.5-0.4,3.7-0.4h-0.6
	c0.8-0.2,1.5-0.4,2.3-0.5c0.6-0.1,1-0.3,1.6-0.4c1.2-0.2,2.2-0.7,3.4-0.9c1.4-0.3,2.8-1,4.2-1.5c0.7-0.3,1.5-0.5,2.2-0.8
	c0.5-0.2,1.1-0.6,1.6-0.5c0.1-0.5,1.5-0.9,2.1-1.2c0.8-0.4,1.5-0.8,2.2-1.2c0.7-0.4,1.4-1,2.1-1.4c0.7-0.4,1.5-0.8,2.2-1.2
	c-0.7,0.5-1.5,0.9-2.2,1.4l1.1-0.8c1.8-0.9,3.3-2.4,5-3.6c0.9-0.7,1.7-1.5,2.5-2.2c0.4-0.4,1-0.8,1.4-1.2c0.5-0.6,1.1-1.1,1.6-1.7
	c0.6-0.8,1.3-1.4,2-2.1c1.6-1.6,2.8-3.7,4.2-5.5l-0.6,0.8c0.4-0.4,0.5-0.7,0.8-1.2c0.2-0.4,0.6-0.8,0.9-1.2c0.3-0.4,0.7-0.8,0.9-1.3
	c0.2-0.4,0.2-0.8,0.5-1.2c0.6-1,1.3-1.8,1.7-2.9c0.5-1.1,0.9-2.2,1.4-3.4c0.4-1,0.9-1.9,1.3-2.9c0.4-1,0.7-2.1,1-3.1
	c0.7-1.9,1-4.1,1.5-6.2v0.6c0-0.5,0.2-0.9,0.2-1.4c0-0.4,0-0.7,0.1-1.1c0.2-0.4,0.2-0.5,0.2-0.9c0-0.5,0.1-0.6,0.3-1
	c0.3-0.8-0.2-1.7,0.1-2.5c0.3-1,0.2-2,0.2-3c0-2.1,0-4.2,0.1-6.4c0-0.8-0.3-1.5-0.3-2.3c0-0.9-0.3-1.8-0.3-2.7l-0.3-2.2
	c0.1,0.7,0.2,1.5,0.3,2.2c-0.3-1.3-0.5-2.7-0.8-4c-0.2-0.8-0.5-1.5-0.6-2.3c-0.1-0.4-0.2-0.7-0.3-1.1c0-0.2-0.2-0.4-0.2-0.6
	c-0.1-0.3,0-0.5-0.1-0.8c-0.2-0.8-1-1.5-0.8-2.4c0.1-0.4,0.6-0.6,0.8-0.8c0.3-0.3,0.3-0.8,0.3-1.1c0-1.2-0.6-2.1-1-3.2
	c-1.1-2.6-2.3-5.2-3.4-7.7c-5.6-8.8-11.1-17.5-16.7-26.3c-5-7.9-10.1-15.9-15.1-23.8c-1.2-1.9-2.5-3.8-3.6-5.7
	c-0.2-0.3-0.6-0.7-0.6-1.1c0-0.4,0.4-1,0.7-1.3c0.5-0.9,1-1.8,1.5-2.6c0.5-0.9,1-1.8,1.5-2.7c0.4-0.7,0.7-1.5,1.4-2
	c1.7-1.2,3.7-2.2,5.5-3.3c1-0.6,2.1-1.2,3.1-1.9c0.8-0.5,1.6-1.1,2.5-1.5c0.8-0.4,1.1,0.7,1.5,1.3c0.6,0.9,1.2,1.8,1.8,2.8
	c1.2,1.9,2.5,3.9,3.7,5.8c0.6,1,1.3,1.9,1.8,2.9c0.1,0.2,0.2,0.6,0.4,0.7c0.3,0.2,0.7-0.2,1-0.4c8-5,16.1-9.8,24.1-14.7l0.3-0.3
	l4.7-2.8l2.5-1.7l4.4-2.8l1.4-0.8l-8.6-14.2C483.6,668.8,488.4,666,488.4,666z"/>
</svg>
