<?xml version="1.0" encoding="utf-8"?>
<!-- Generator: Adobe Illustrator 19.2.1, SVG Export Plug-In . SVG Version: 6.00 Build 0)  -->
<svg version="1.1" id="Layer_1" xmlns="http://www.w3.org/2000/svg" xmlns:xlink="http://www.w3.org/1999/xlink" x="0px" y="0px"
	 viewBox="0 0 1728 1152" style="enable-background:new 0 0 1728 1152;" xml:space="preserve">
<style type="text/css">
	.st0{fill:#FFFFFF;stroke:#231F20;stroke-linecap:round;stroke-linejoin:round;stroke-miterlimit:10;}
</style>
<g id="Blue_0.001_x22__Line:_Vector_Scoring_Layer">
</g>
<g id="Red_0.001_x22__Line:_Vector_Cutting_Layer">
</g>
<g>
	<polyline class="st0" points="823,800.7 823.5,802.3 824.4,804.8 824.6,806.2 809.1,806.8 809.6,825.1 811.9,825.1 817.6,835.3 
		813,838.2 817.1,845.1 790.5,861.5 789.7,860.4 772.7,870.9 756.1,844.3 768,837 747.2,803.7 739.7,808.2 738,805.9 735.8,807.3 
		730.8,799.6 733.3,797.9 731.6,795.4 739.4,790.7 741.1,793.2 743.6,791.5 746.1,795.4 747.7,794.3 746.1,792.1 746.9,791.5 
		742.7,785.1 769.4,768.5 773.6,774.9 774.1,774.6 775.5,777.1 777.2,776 775.5,773.2 776.9,767.4 782.4,764 788.3,765.4 
		791.6,770.7 790.2,776.8 790.2,776.8 793.3,781.8 797.2,779.6 810.8,801 816.9,797.1 821,796 821.9,795.7 822.1,796.5 821.9,796.5 
		823,800.4 	"/>
</g>
</svg>
