<?xml version="1.0" encoding="utf-8"?>
<!-- Generator: Adobe Illustrator 19.2.1, SVG Export Plug-In . SVG Version: 6.00 Build 0)  -->
<svg version="1.1" id="Layer_1" xmlns="http://www.w3.org/2000/svg" xmlns:xlink="http://www.w3.org/1999/xlink" x="0px" y="0px"
	 viewBox="0 0 1728 1152" style="enable-background:new 0 0 1728 1152;" xml:space="preserve">
<style type="text/css">
	.st0{fill:#FFFFFF;stroke:#231F20;stroke-linecap:round;stroke-linejoin:round;stroke-miterlimit:10;}
</style>
<g id="Blue_0.001_x22__Line:_Vector_Scoring_Layer">
</g>
<g id="Red_0.001_x22__Line:_Vector_Cutting_Layer">
</g>
<g>
	<polygon class="st0" points="886.2,791.3 876.8,775.9 873.2,778.4 873.2,784 873.2,784.3 873.2,787.9 864.9,792.9 863,789.8 
		852.1,792.9 832.4,798.2 823,800.7 823.5,802.3 824.4,804.8 824.6,806.2 809.1,806.8 809.6,825.1 811.9,825.1 823.3,843.7 
		823.5,844.3 823.5,845.6 823.5,846.2 823.5,851.5 824.1,863.1 847.4,862.3 847.4,864.2 847.4,864.5 847.7,867 847.4,867 
		847.4,867.6 872.1,866.7 872.1,866.2 871.8,853.1 871,834.5 871,830.9 871,830.1 874.3,826.2 875.2,825.4 881,818.7 874.6,808.7 
		870.2,801.5 	"/>
</g>
</svg>
