<?xml version="1.0" encoding="utf-8"?>
<!-- Generator: Adobe Illustrator 19.2.1, SVG Export Plug-In . SVG Version: 6.00 Build 0)  -->
<svg version="1.1" id="Layer_1" xmlns="http://www.w3.org/2000/svg" xmlns:xlink="http://www.w3.org/1999/xlink" x="0px" y="0px"
	 viewBox="0 0 1728 1152" style="enable-background:new 0 0 1728 1152;" xml:space="preserve">
<style type="text/css">
	.st0{fill:#FFFFFF;stroke:#231F20;stroke-linecap:round;stroke-linejoin:round;stroke-miterlimit:10;}
</style>
<g id="Blue_0.001_x22__Line:_Vector_Scoring_Layer">
</g>
<g id="Red_0.001_x22__Line:_Vector_Cutting_Layer">
</g>
<polygon class="st0" points="652.5,976.7 652.8,977.2 652.5,977.5 653.6,980.8 659.5,979.2 660.3,978.9 660.6,979.7 666.4,999.7 
	666.7,1000.3 668.1,1005 668.1,1005.3 669.4,1010 669.7,1010.8 670,1011.1 672.5,1013.6 672.8,1013.9 675.3,1016.1 675.6,1016.7 
	678.1,1018.9 678.6,1019.4 678.6,1019.2 679.2,1019.4 710.3,1026.7 710.8,1026.9 710.8,1027.8 710.5,1027.8 710.5,1028.9 
	713,1029.4 714.1,1029.4 714.7,1029.7 712.5,1038.6 711.9,1038.6 711.9,1038.3 708.3,1037.5 706.9,1043.6 706.7,1044.4 
	706.1,1044.1 701.4,1043 700.8,1042.8 696.1,1041.6 695.5,1041.6 690.8,1040.5 690.5,1040.3 685.6,1039.1 685.3,1039.1 680.6,1038 
	680,1037.8 675.3,1036.6 674.4,1036.6 674.4,1036.4 673.9,1036.6 673.9,1036.4 670.6,1037.5 670.3,1037.8 670.3,1037.5 670,1037.5 
	667,1038.6 666.4,1038.9 666.4,1038.6 663.1,1039.7 662.5,1040 662.2,1040.5 662,1040.5 658.6,1044.1 658.3,1044.4 655,1048 
	654.7,1048.3 651.4,1051.9 651.1,1052.2 650.8,1052.2 647.5,1055.8 647.2,1056.1 643.9,1059.7 643.6,1060 640.3,1063.6 
	639.7,1064.1 639.2,1063.6 638.6,1063 638.6,1062.7 637,1064.4 635.9,1065.8 635.6,1066.1 628.9,1059.7 629.2,1059.1 629.5,1059.4 
	632,1056.6 630.9,1055.5 627.5,1052.5 627,1051.9 626.7,1051.6 627.3,1051.4 649.2,1028.3 649.7,1027.8 650,1027.2 650.8,1023.6 
	649.5,1023.3 649.7,1023 650,1023.3 650.8,1020 650.6,1019.7 650.6,1019.4 651.7,1019.7 652.5,1016.4 652.8,1015.8 652.5,1015.6 
	652.5,1015 643.4,984.5 643.1,983.9 643.9,983.6 645,983.3 643.9,980 643.6,979.7 643.6,979.2 "/>
</svg>
