<?xml version="1.0" encoding="utf-8"?>
<!-- Generator: Adobe Illustrator 19.2.1, SVG Export Plug-In . SVG Version: 6.00 Build 0)  -->
<svg version="1.1" id="Layer_1" xmlns="http://www.w3.org/2000/svg" xmlns:xlink="http://www.w3.org/1999/xlink" x="0px" y="0px"
	 viewBox="0 0 1728 1152" style="enable-background:new 0 0 1728 1152;" xml:space="preserve">
<style type="text/css">
	.st0{fill:#FFFFFF;stroke:#231F20;stroke-linecap:round;stroke-linejoin:round;stroke-miterlimit:10;}
</style>
<g id="Blue_0.001_x22__Line:_Vector_Scoring_Layer">
</g>
<g id="Red_0.001_x22__Line:_Vector_Cutting_Layer">
</g>
<polyline class="st0" points="954,629.9 954.8,631.6 989.8,706.6 972.9,714.6 973.4,715.7 952.3,727.9 942.1,733.8 941.5,732.9 
	941.2,732.4 940.7,731.3 940.4,731 940.4,730.7 940.1,730.2 925.1,706.3 915.1,690.2 900.2,666 900.2,666.3 899.9,666.3 
	898.8,664.4 895.4,659.1 912.6,651 907.1,638.8 868.8,631.9 868.5,631.9 854.6,601.9 865.5,595.2 908.2,568.3 908.5,568.3 
	920.4,580.2 922.6,579.1 928.7,576.4 929,576.4 937.6,595 954,629.9 "/>
</svg>
